<svg xmlns="http://www.w3.org/2000/svg" width="540" height="278" viewBox="0 0 540 278" fill="none"><path d="M476.141 6.96247H538.514L428.714 277H366.444L412.15 174.063L412.326 173.667L412.158 173.268L341.942 6.96247H404.294L439.275 105.423L440.217 108.076L441.16 105.423L476.141 6.96247ZM57.6956 39.1287L59.6004 39.5546C65.5845 26.8444 73.349 17.7875 83.6507 11.6183C93.7439 5.57395 106.349 2.25587 122.261 1.07351V64.2533C111.506 61.2468 101.088 61.7155 90.7084 64.6242L90.7023 64.626C73.2991 69.6221 57.6956 89.4765 57.6956 118.877V183.836H1V6.96247H57.6956V39.1287ZM228.393 134.046L226.97 134.912L228.403 135.761C233.04 138.508 240.23 139.627 247.255 139.627C264.683 139.627 280.347 132.797 291.146 122.971L320.028 161.256C300.875 179.697 277.129 189.799 249.457 189.799C219.066 189.799 194.753 179.267 178.039 162.242C161.319 145.212 152.141 121.623 152.141 95.3995C152.141 69.1764 161.319 45.5865 178.039 28.5565C194.753 11.5316 219.066 1 249.457 1C261.969 1 279.283 4.04226 295.133 14.3926C310.83 24.6432 325.161 42.1063 331.96 71.0709L228.393 134.046ZM269.051 62.7159L269.906 62.1977L269.388 61.3425C266.273 56.2014 259.347 51.1716 249.457 51.1716C236.738 51.1716 225.095 55.9228 217.093 64.2904C209.079 72.671 204.773 84.6223 206.644 98.8835L206.844 100.402L208.154 99.6086L269.051 62.7159Z" stroke="black" stroke-width="2"></path></svg>